<svg width="40" height="20" viewBox="0 0 40 20" fill="none" xmlns="http://www.w3.org/2000/svg">
<path fill-rule="evenodd" clip-rule="evenodd" d="M4.69493 0.223126C3.17619 0.854473 1.77457 3.22905 0.934568 6.594C0.358885 8.90099 -0.189153 15.1046 0.0630415 16.4605C0.282257 17.6392 0.820595 17.878 3.25936 17.878H5.06231V17.0004C5.06231 16.0081 5.60453 14.5245 6.22338 13.8231C6.89824 13.0585 8.3663 12.4118 9.42722 12.4118C10.4881 12.4118 11.9562 13.0585 12.6311 13.8231C13.2499 14.5245 13.7921 16.0081 13.7921 17.0004V17.878H19.5565H25.3208L25.5924 16.4138C25.9222 14.6363 26.6499 13.5674 27.9795 12.908C29.8496 11.9805 31.7486 12.3807 33.1313 13.9943C33.9347 14.9317 34.1045 15.3839 34.2175 16.8841L34.2829 17.7538L36.7236 17.8241C38.8283 17.8847 39.2194 17.8323 39.5628 17.4432C39.9117 17.0484 39.9658 16.0806 39.9966 9.67048C40.0182 5.15216 39.9362 2.09978 39.7822 1.69826C39.645 1.34047 39.2371 0.809501 38.8758 0.518053C38.2193 -0.0109274 38.2021 -0.0114243 21.7011 0.0042289C12.6165 0.0129251 4.96362 0.111565 4.69493 0.223126ZM37.7821 1.91417C38.1953 2.2583 38.334 2.71845 38.4483 4.12327C38.5276 5.09899 38.521 6.189 38.4337 6.54579L38.2749 7.19404H34.2783H30.2818V4.50242C30.2818 3.02183 30.3545 1.73602 30.4435 1.64509C30.5323 1.5539 32.1024 1.47936 33.9328 1.47936C36.7416 1.47936 37.3418 1.54719 37.7821 1.91417ZM11.8522 4.46093C11.8522 6.60518 11.7809 7.19404 11.5209 7.19404C10.7563 7.19404 7.68392 9.07441 5.42824 10.9232C4.09549 12.0152 2.79693 12.9087 2.54231 12.9087C2.10897 12.9087 2.08909 12.7609 2.23094 10.6104C2.3859 8.26343 3.07313 5.26248 3.7737 3.8748C3.98855 3.44894 4.48712 2.79175 4.88141 2.41408C5.5878 1.73826 5.64575 1.72783 8.72544 1.72783H11.8522V4.46093ZM20.5296 4.39882L20.4607 7.06981L16.7627 7.13838L13.0646 7.20696V4.46739V1.72783H16.8316H20.5985L20.5296 4.39882ZM29.2594 4.39882L29.1905 7.06981L25.4925 7.13838L21.7945 7.20696V4.46739V1.72783H25.5614H29.3283L29.2594 4.39882ZM8.04476 14.0576C5.56937 15.3081 5.94014 18.9735 8.63402 19.8846C9.67578 20.2369 11.2585 19.6799 11.9385 18.7218C13.0149 17.2047 12.4892 14.9431 10.8616 14.0894C9.8431 13.555 9.05717 13.546 8.04476 14.0576ZM28.4308 14.1307C27.3105 14.8306 26.8868 15.5961 26.8868 16.9204C26.8868 19.9427 30.7491 21.1545 32.3946 18.6487C33.4 17.1182 33.0326 15.2681 31.5156 14.2206C30.5153 13.5301 29.442 13.4988 28.4308 14.1307Z" fill="#1882FF"/>
</svg>
