<svg width="24" height="24" viewBox="0 0 24 24" fill="none" xmlns="http://www.w3.org/2000/svg">
<path d="M12.8947 3.01123H11.5843C13.9297 3.13489 16.1392 4.15041 17.7603 5.84989C19.3815 7.54937 20.2916 9.80425 20.3046 12.1529C20.3175 14.5015 19.4321 16.7663 17.8297 18.4835C16.2274 20.2007 14.0292 21.2404 11.6853 21.3898H12.898C15.3352 21.3898 17.6725 20.4217 19.3959 18.6983C21.1192 16.975 22.0873 14.6377 22.0873 12.2005C22.0873 9.76337 21.1192 7.42604 19.3959 5.70271C17.6725 3.97938 15.3352 3.01123 12.898 3.01123H12.8947Z" fill="#E1AA00"/>
<path d="M15.9888 4.40458H17.7367C17.4246 4.20833 17.1009 4.03112 16.7674 3.87393H15.0195C15.3529 4.03143 15.6765 4.20863 15.9888 4.40458Z" fill="#B88700"/>
<path d="M19.967 9.7122H21.6925C21.642 9.5327 21.5859 9.35544 21.5253 9.18155H19.7998C19.8615 9.35544 19.9165 9.5327 19.967 9.7122Z" fill="#B88700"/>
<path d="M18.7318 7.05561H20.4696C20.3473 6.87387 20.2183 6.69549 20.0837 6.52496H18.3459C18.4828 6.7011 18.6129 6.88396 18.7318 7.05561Z" fill="#B88700"/>
<path d="M15.438 20.3252H17.1713C17.4723 20.1647 17.7641 19.9876 18.0452 19.7945H16.3097C16.0291 19.9873 15.7381 20.1644 15.438 20.3252Z" fill="#B88700"/>
<path d="M22.0391 11.8337H20.3137C20.3137 11.9571 20.3238 12.0816 20.3238 12.205V12.3643H22.0492V12.2005C22.0391 12.0783 22.0391 11.956 22.0391 11.8337Z" fill="#B88700"/>
<path d="M19.8716 15.0187H21.5971C21.6532 14.8448 21.7093 14.6675 21.7496 14.488H20.0253C19.9804 14.6675 19.9277 14.8448 19.8716 15.0187Z" fill="#B88700"/>
<path d="M18.5085 17.6708H20.2475C20.3742 17.498 20.4965 17.3208 20.6109 17.1401H18.8788C18.7565 17.323 18.6364 17.5003 18.5085 17.6708Z" fill="#B88700"/>
<path d="M11.2141 20.968C16.1114 20.968 20.0814 16.998 20.0814 12.1007C20.0814 7.2034 16.1114 3.23337 11.2141 3.23337C6.31683 3.23337 2.3468 7.2034 2.3468 12.1007C2.3468 16.998 6.31683 20.968 11.2141 20.968Z" fill="url(#paint0_linear_201_113)"/>
<path opacity="0.3" d="M11.0178 3.5374C12.9293 3.53914 14.7853 4.18041 16.2902 5.35908C17.7951 6.53776 18.8624 8.18606 19.322 10.0415C19.7817 11.897 19.6073 13.8529 18.8267 15.5977C18.046 17.3426 16.704 18.7761 15.0144 19.67C13.3247 20.5639 11.3846 20.8667 9.50287 20.5303C7.62117 20.1939 5.90614 19.2375 4.63089 17.8136C3.35563 16.3896 2.59349 14.5799 2.46582 12.6726C2.33816 10.7653 2.85231 8.87019 3.9264 7.28896C4.71222 6.13211 5.76942 5.18533 7.00559 4.53136C8.24176 3.87739 9.61929 3.53612 11.0178 3.5374ZM11.0178 3.23337C8.89544 3.23234 6.84319 3.99294 5.23415 5.3769C3.62511 6.76085 2.56611 8.67625 2.2497 10.7749C1.93329 12.8735 2.38048 15.016 3.50995 16.8128C4.63943 18.6097 6.3762 19.9416 8.4045 20.5663C10.4328 21.1911 12.618 21.0672 14.5627 20.2173C16.5074 19.3674 18.0826 17.8478 19.0019 15.9349C19.9211 14.022 20.1234 11.8427 19.5719 9.79322C19.0204 7.74378 17.7518 5.96028 15.9967 4.76697C14.5282 3.76852 12.7936 3.23423 11.0178 3.23337Z" fill="url(#paint1_linear_201_113)"/>
<path d="M11.1087 21.41C9.28808 21.41 7.50839 20.8701 5.99464 19.8587C4.48088 18.8472 3.30105 17.4096 2.60435 15.7276C1.90764 14.0456 1.72535 12.1948 2.08053 10.4092C2.43571 8.6236 3.3124 6.98343 4.59974 5.69609C5.88708 4.40874 7.52726 3.53205 9.31285 3.17688C11.0984 2.8217 12.9493 3.00399 14.6313 3.70069C16.3133 4.3974 17.7509 5.57722 18.7623 7.09098C19.7738 8.60473 20.3137 10.3844 20.3137 12.205C20.3137 14.6463 19.3438 16.9876 17.6176 18.7139C15.8913 20.4402 13.55 21.41 11.1087 21.41ZM11.1087 3.46558C9.38017 3.46558 7.69049 3.97814 6.2533 4.93844C4.81611 5.89874 3.69595 7.26365 3.03449 8.86057C2.37302 10.4575 2.19995 12.2147 2.53717 13.91C2.87438 15.6053 3.70673 17.1625 4.92896 18.3847C6.15119 19.6069 7.7084 20.4393 9.40368 20.7765C11.099 21.1137 12.8562 20.9406 14.4531 20.2792C16.05 19.6177 17.4149 18.4976 18.3752 17.0604C19.3355 15.6232 19.8481 13.9335 19.8481 12.205C19.8481 11.0573 19.622 9.92089 19.1828 8.86057C18.7436 7.80026 18.0999 6.83683 17.2884 6.0253C16.4768 5.21377 15.5134 4.57003 14.4531 4.13083C13.3928 3.69164 12.2563 3.46558 11.1087 3.46558Z" fill="url(#paint2_linear_201_113)"/>
<path d="M12.7275 16.3672C12.6649 16.4287 12.5808 16.4633 12.493 16.4636C12.3882 16.4642 12.2842 16.4441 12.1871 16.4044C12.09 16.3647 12.0017 16.3062 11.9273 16.2323C11.8529 16.1584 11.7938 16.0705 11.7534 15.9737C11.713 15.8769 11.6922 15.7731 11.692 15.6682V13.291H13.0517C13.2666 13.291 13.4726 13.2056 13.6245 13.0537C13.7764 12.9018 13.8617 12.6958 13.8617 12.481C13.8617 12.2662 13.7764 12.0601 13.6245 11.9082C13.4726 11.7563 13.2666 11.671 13.0517 11.671H11.6909V10.0207H13.0517C13.2666 10.0207 13.4726 9.93536 13.6245 9.78346C13.7764 9.63156 13.8617 9.42553 13.8617 9.21071C13.8617 8.99588 13.7764 8.78986 13.6245 8.63796C13.4726 8.48605 13.2666 8.40071 13.0517 8.40071H11.6909V6.88281C11.6909 6.66992 11.6063 6.46575 11.4558 6.31522C11.3053 6.16468 11.1011 6.08011 10.8882 6.08011C10.6753 6.08011 10.4711 6.16468 10.3206 6.31522C10.1701 6.46575 10.0855 6.66992 10.0855 6.88281V8.40296H8.74597C8.53115 8.40296 8.32512 8.4883 8.17322 8.6402C8.02132 8.7921 7.93597 8.99813 7.93597 9.21295C7.93597 9.42778 8.02132 9.6338 8.17322 9.7857C8.32512 9.93761 8.53115 10.0229 8.74597 10.0229H10.0866V11.6676H8.74597C8.53115 11.6676 8.32512 11.753 8.17322 11.9049C8.02132 12.0568 7.93597 12.2628 7.93597 12.4776C7.93597 12.6924 8.02132 12.8985 8.17322 13.0504C8.32512 13.2023 8.53115 13.2876 8.74597 13.2876H10.0866V15.6536C10.0866 16.2949 10.3409 16.9099 10.7937 17.364C11.2464 17.818 11.8608 18.074 12.502 18.0758C12.7581 18.0756 13.0117 18.0247 13.2479 17.9259C13.4842 17.8271 13.6986 17.6825 13.8786 17.5003C13.9546 17.4249 14.015 17.3353 14.0562 17.2365C14.0974 17.1377 14.1187 17.0317 14.1187 16.9247C14.1187 16.8176 14.0975 16.7117 14.0563 16.6129C14.0151 16.5141 13.9547 16.4244 13.8786 16.3491C13.8026 16.2738 13.7123 16.2143 13.6131 16.174C13.5139 16.1338 13.4077 16.1136 13.3007 16.1147C13.1937 16.1157 13.0879 16.138 12.9895 16.1802C12.8911 16.2224 12.8021 16.2836 12.7275 16.3604V16.3672Z" fill="#704B00"/>
<defs>
<linearGradient id="paint0_linear_201_113" x1="11.2141" y1="20.968" x2="11.2141" y2="3.23337" gradientUnits="userSpaceOnUse">
<stop offset="0.02" stop-color="#FCB900"/>
<stop offset="1" stop-color="#FCCA04"/>
</linearGradient>
<linearGradient id="paint1_linear_201_113" x1="6.03256" y1="19.4169" x2="15.9944" y2="4.75776" gradientUnits="userSpaceOnUse">
<stop offset="0.02" stop-color="#603813"/>
<stop offset="0.58" stop-color="#C69C6D"/>
<stop offset="1" stop-color="#C69C6D" stop-opacity="0"/>
</linearGradient>
<linearGradient id="paint2_linear_201_113" x1="8.71536" y1="49.43" x2="27.1254" y2="49.43" gradientUnits="userSpaceOnUse">
<stop stop-color="#FCD847"/>
<stop offset="1" stop-color="#A47E1B"/>
</linearGradient>
</defs>
</svg>
